<svg xmlns="http://www.w3.org/2000/svg" xmlns:xlink="http://www.w3.org/1999/xlink" width="134.965" height="40.225" viewBox="0 0 134.965 40.225"><defs><linearGradient id="a" y1="0.5" x2="1" y2="0.5" gradientUnits="objectBoundingBox"><stop offset="0" stop-color="#77c2ed"/><stop offset="0.065" stop-color="#70bde8"/><stop offset="0.699" stop-color="#3297bf"/><stop offset="1" stop-color="#1b89b0"/></linearGradient><linearGradient id="b" x1="0.5" y1="1" x2="0.5" gradientUnits="objectBoundingBox"><stop offset="0" stop-color="#89136b"/><stop offset="0.595" stop-color="#b33585"/><stop offset="1" stop-color="#cb4994"/></linearGradient><linearGradient id="c" x1="1" y1="0.5" x2="0" y2="0.5" xlink:href="#b"/><linearGradient id="d" x1="0.992" y1="0.504" x2="0.009" y2="0.496" gradientUnits="objectBoundingBox"><stop offset="0" stop-color="#772223"/><stop offset="0.411" stop-color="#782223"/><stop offset="0.574" stop-color="#7f2224"/><stop offset="0.692" stop-color="#8c2326"/><stop offset="0.79" stop-color="#9d2429"/><stop offset="0.874" stop-color="#b3262d"/><stop offset="0.947" stop-color="#cf2831"/><stop offset="1" stop-color="#e82a36"/></linearGradient><linearGradient id="e" x1="1.001" y1="0.509" x2="-0.008" y2="0.5" xlink:href="#d"/><linearGradient id="f" x1="0.5" y1="1" x2="0.5" gradientUnits="objectBoundingBox"><stop offset="0" stop-color="#d52548"/><stop offset="1" stop-color="#ec4428"/></linearGradient><linearGradient id="g" x1="0" y1="0.5" x2="1" y2="0.5" xlink:href="#f"/><linearGradient id="h" x1="1" y1="0.5" x2="0" y2="0.5" gradientUnits="objectBoundingBox"><stop offset="0" stop-color="#e82a34"/><stop offset="0.211" stop-color="#cf2d41"/><stop offset="0.655" stop-color="#923763"/><stop offset="1" stop-color="#5f4081"/></linearGradient><linearGradient id="i" x1="-0.744" y1="0.5" x2="1.016" y2="0.5" gradientUnits="objectBoundingBox"><stop offset="0" stop-color="#0a2c6c"/><stop offset="0.3" stop-color="#074381"/><stop offset="0.93" stop-color="#0081b9"/><stop offset="0.995" stop-color="#0088c0"/></linearGradient><linearGradient id="j" x1="0.005" y1="0.5" x2="2.164" y2="0.5" xlink:href="#i"/></defs><g transform="translate(-603.043 -236.162)"><g transform="translate(603.043 236.162)"><path d="M606.419,262.219c.049.034.1.065.153.094l.018.01,0,0,.16.091.014.008,7.59,4.3v-24.26a.6.6,0,0,0-1.072-.359h0l-.013.023c-.006.009-.011.019-.017.028l-6.605,11.551-1.632,2.774-.045.075-.025.042h0a4.133,4.133,0,0,0-.3.663A4.351,4.351,0,0,0,606.419,262.219Z" transform="translate(-603.992 -240.014)" fill="url(#a)"/><path d="M653.313,344.6l-9.87-5.7-.18-.1-.011-.006-7.974,4.682c-.052.031-.105.06-.16.086a4.256,4.256,0,0,1-3.606.163,4.686,4.686,0,0,1-1.643-1.146c.046.062.092.121.139.18a7.09,7.09,0,0,0,4.979,2.852h.005l12.4,0,3.263.04h.139a4.113,4.113,0,0,0,.813-.084c-.1.014-.191.027-.288.038A4.668,4.668,0,0,0,653.313,344.6Z" transform="translate(-621.146 -305.42)" opacity="0.95" fill="url(#b)"/><path d="M671.218,324.953h0l9.871,5.7a4.265,4.265,0,0,0,1.467-3.056c0-.06.006-.121,0-.181l-.091-9.291-11.442,6.719.011.007Z" transform="translate(-648.92 -291.473)" fill="url(#c)"/><path d="M709.283,300.223l-9.823,5.671-.219.127-.039.023.091,9.291c0,.06,0,.121,0,.181a4.265,4.265,0,0,1-1.467,3.056,4.668,4.668,0,0,1-2,1c.1-.011.193-.024.288-.038A7.028,7.028,0,0,0,701,316.661v0l0,0h0l6.167-10.749,1.659-2.809.045-.076.025-.042h0a4.134,4.134,0,0,0,.26-.549A4.735,4.735,0,0,0,709.283,300.223Z" transform="translate(-665.655 -279.393)" opacity="0.95" fill="url(#d)"/><path d="M706.2,290.32v0l9.823-5.671a4.3,4.3,0,0,0-1.932-2.828c-.05-.034-.1-.066-.156-.1l-8.123-4.579h0l.131,13.323.039-.022Z" transform="translate(-672.397 -263.821)" fill="url(#e)"/><path d="M715.889,262.81a7.123,7.123,0,0,0,.068-5.982v0l0,0h0l-6.279-10.795-1.617-2.862-.044-.078-.024-.043h0a4.12,4.12,0,0,0-.736-.921l.033.04a3.114,3.114,0,0,0-1.472-.7v11.6l8.123,4.579c.053.03.106.062.156.1a4.3,4.3,0,0,1,1.931,2.828,4.734,4.734,0,0,1-.126,2.207Z" transform="translate(-672.398 -239.741)" opacity="0.95" fill="url(#f)"/><path d="M682.042,252.592V241.245a5.08,5.08,0,0,0-.676-.095,4.746,4.746,0,0,0-2.682.627l-8.1,4.614,11.454,6.457,0-.258Z" transform="translate(-648.624 -239.521)" fill="url(#g)"/><path d="M671.592,238.545a7.586,7.586,0,0,0-4.007-2.292,4.094,4.094,0,0,0-.883-.091H653.88a.91.91,0,0,0-.91.909v8.158a.621.621,0,0,0,.928.539l4.8-2.736,8.1-4.614a4.747,4.747,0,0,1,2.682-.627,5.083,5.083,0,0,1,.676.095,3.114,3.114,0,0,1,1.472.7Z" transform="translate(-636.736 -236.162)" fill="url(#h)"/><path d="M638.528,329.743c.054-.026.108-.055.16-.086l7.974-4.682-11.739-6.657v11.587A4.256,4.256,0,0,0,638.528,329.743Z" transform="translate(-624.556 -291.604)" fill="url(#i)"/><path d="M605.641,294.176l-.018-.01c-.052-.029-.1-.061-.153-.094a4.351,4.351,0,0,1-1.777-4.954c.009-.03.016-.047.016-.047a7.071,7.071,0,0,0-.067,5.905v0l0,0h0l6.162,10.656,1.587,2.826c.014.026.029.051.043.077l.024.043h0a4.082,4.082,0,0,0,.443.619c-.047-.059-.093-.118-.139-.18a4.687,4.687,0,0,0,1.643,1.146V298.589l-7.59-4.312Z" transform="translate(-603.043 -271.867)" opacity="0.95" fill="url(#j)"/></g><g transform="translate(656.563 236.162)"><path d="M770.5,239.019v3.68h4.03a6.734,6.734,0,0,1,4.873,1.981,6.706,6.706,0,0,1-.009,9.627,6.909,6.909,0,0,1-9.719,0,6.516,6.516,0,0,1-2.033-4.822V236.162a2.874,2.874,0,0,1,2.858,2.857Zm8.044,10.466a3.984,3.984,0,0,0-1.167-2.883,3.833,3.833,0,0,0-2.855-1.2H770.5v4.081a4.042,4.042,0,0,0,1.167,2.9,3.959,3.959,0,0,0,5.709,0A4.043,4.043,0,0,0,778.542,249.485Z" transform="translate(-767.64 -236.162)" fill="#3377b1"/><path d="M820.277,256.267a6.684,6.684,0,0,1,4.855,2,6.715,6.715,0,0,1,0,9.626,6.93,6.93,0,0,1-9.7,0,6.735,6.735,0,0,1,0-9.626A6.655,6.655,0,0,1,820.277,256.267Zm0,2.7a3.793,3.793,0,0,0-2.849,1.216,4.046,4.046,0,0,0-1.165,2.9,3.988,3.988,0,0,0,1.165,2.883,3.994,3.994,0,0,0,5.706,0,3.974,3.974,0,0,0,1.173-2.883,4.032,4.032,0,0,0-1.173-2.9A3.821,3.821,0,0,0,820.277,258.971Z" transform="translate(-798.525 -249.73)" fill="#1d59a1"/><path d="M865.992,256.267a6.684,6.684,0,0,1,4.855,2,6.715,6.715,0,0,1,0,9.626,6.929,6.929,0,0,1-9.7,0,6.735,6.735,0,0,1,0-9.626A6.655,6.655,0,0,1,865.992,256.267Zm0,2.7a3.792,3.792,0,0,0-2.849,1.216,4.044,4.044,0,0,0-1.165,2.9,3.986,3.986,0,0,0,1.165,2.883,3.994,3.994,0,0,0,5.706,0,3.973,3.973,0,0,0,1.173-2.883,4.03,4.03,0,0,0-1.173-2.9A3.82,3.82,0,0,0,865.992,258.971Z" transform="translate(-829.375 -249.73)" fill="#75295c"/><path d="M918.644,270.162a6.451,6.451,0,0,1-2.033,4.813,6.749,6.749,0,0,1-4.872,1.973h-4.014a2.7,2.7,0,0,1,2.7-2.7h1.309a3.874,3.874,0,0,0,2.866-1.2,3.957,3.957,0,0,0,1.182-2.883v-.289h-4.065a6.71,6.71,0,0,1-4.855-1.982,6.712,6.712,0,0,1,0-9.626,6.923,6.923,0,0,1,9.732,0,6.5,6.5,0,0,1,2.043,4.821Zm-2.908-2.993v-4.082a4.042,4.042,0,0,0-1.167-2.9,3.959,3.959,0,0,0-5.709,0,4.042,4.042,0,0,0-1.168,2.9,3.984,3.984,0,0,0,1.168,2.883,3.832,3.832,0,0,0,2.855,1.2Z" transform="translate(-860.224 -249.73)" fill="#772223"/><path d="M954.137,249.519a3.973,3.973,0,0,0,1.174,2.883,3.848,3.848,0,0,0,2.857,1.2h1.309a2.7,2.7,0,0,1,2.7,2.7h-4.013a6.711,6.711,0,0,1-4.856-1.982,6.46,6.46,0,0,1-2.032-4.8V236.162a2.874,2.874,0,0,1,2.857,2.857Z" transform="translate(-891.568 -236.162)" fill="#bf2f30"/><path d="M989.482,269.873a6.683,6.683,0,0,1-4.847-1.982,6.735,6.735,0,0,1,0-9.626,6.655,6.655,0,0,1,4.847-2h4.03a2.593,2.593,0,0,1-.8,1.913,2.634,2.634,0,0,1-1.922.791h-1.309a3.79,3.79,0,0,0-2.841,1.224,4.04,4.04,0,0,0-1.173,2.891,3.982,3.982,0,0,0,1.173,2.874,3.816,3.816,0,0,0,2.841,1.207h1.309a2.634,2.634,0,0,1,1.922.791,2.593,2.593,0,0,1,.8,1.913Zm-.953-8.163h4.983a2.589,2.589,0,0,1-.8,1.917,2.641,2.641,0,0,1-1.922.787h-2.262a1.307,1.307,0,0,1-.952-.385,1.279,1.279,0,0,1-.391-.95,1.344,1.344,0,0,1,.383-.975A1.284,1.284,0,0,1,988.529,261.71Z" transform="translate(-912.711 -249.73)" fill="#5f4081"/><g transform="translate(0.356 32.324)"><g transform="translate(13.858)"><path d="M814.25,336.125h1.4l2.9,7.542h-1.415l-.708-2h-3.011l-.707,2h-1.363Zm-.465,4.542h2.3l-1.13-3.243h-.031Z" transform="translate(-811.356 -335.945)" fill="#0a0f35"/><path d="M839.977,338.149a2.672,2.672,0,0,0-.232-.6,1.677,1.677,0,0,0-.38-.476,1.7,1.7,0,0,0-.544-.312,2.165,2.165,0,0,0-.724-.111,2.119,2.119,0,0,0-1.041.244,2.042,2.042,0,0,0-.712.649,2.93,2.93,0,0,0-.407.924,4.3,4.3,0,0,0,0,2.113,2.93,2.93,0,0,0,.407.924,2.042,2.042,0,0,0,.712.649,2.119,2.119,0,0,0,1.041.244,1.878,1.878,0,0,0,.782-.153,1.737,1.737,0,0,0,.581-.423,1.967,1.967,0,0,0,.38-.629,3.01,3.01,0,0,0,.18-.771h1.289a3.594,3.594,0,0,1-.291,1.236,3.034,3.034,0,0,1-.671.967,2.959,2.959,0,0,1-.992.629,3.444,3.444,0,0,1-1.257.222,3.561,3.561,0,0,1-1.516-.311,3.317,3.317,0,0,1-1.135-.851,3.805,3.805,0,0,1-.713-1.256,4.813,4.813,0,0,1,0-3.053,3.811,3.811,0,0,1,.713-1.257,3.383,3.383,0,0,1,1.135-.855,3.505,3.505,0,0,1,1.516-.318,4.021,4.021,0,0,1,1.194.174,3.1,3.1,0,0,1,.988.507,2.636,2.636,0,0,1,.692.808,2.82,2.82,0,0,1,.327,1.088Z" transform="translate(-826.964 -335.571)" fill="#0a0f35"/><path d="M859.373,336.125h1.4l2.9,7.542h-1.415l-.708-2h-3.011l-.707,2h-1.363Zm-.465,4.542h2.3l-1.13-3.243h-.031Z" transform="translate(-841.806 -335.945)" fill="#0a0f35"/><path d="M880.842,336.125h3.127a3.524,3.524,0,0,1,1.5.3,2.773,2.773,0,0,1,1.035.809,3.45,3.45,0,0,1,.6,1.2,5.619,5.619,0,0,1,0,2.936,3.449,3.449,0,0,1-.6,1.2,2.774,2.774,0,0,1-1.035.809,3.524,3.524,0,0,1-1.5.3h-3.127Zm1.32,6.464h1.3a3.3,3.3,0,0,0,1.263-.206,1.851,1.851,0,0,0,.771-.571,2.06,2.06,0,0,0,.38-.856,5.658,5.658,0,0,0,0-2.123,2.06,2.06,0,0,0-.38-.856,1.852,1.852,0,0,0-.771-.571,3.3,3.3,0,0,0-1.263-.205h-1.3Z" transform="translate(-858.248 -335.945)" fill="#0a0f35"/><path d="M904.3,336.125h5.429v1.141h-4.109v1.975h3.8v1.078h-3.8v2.208H909.8v1.141h-5.5Z" transform="translate(-874.077 -335.945)" fill="#0a0f35"/><path d="M924.7,336.125h1.859l2.081,5.9h.021l2.028-5.9h1.839v7.542H931.27v-5.82h-.022l-2.092,5.82h-1.088l-2.092-5.82h-.021v5.82H924.7Z" transform="translate(-887.845 -335.945)" fill="#0a0f35"/><path d="M953.812,340.709l-2.831-4.584h1.531l2,3.381,1.965-3.381h1.479l-2.82,4.584v2.958h-1.32Z" transform="translate(-905.581 -335.945)" fill="#0a0f35"/></g><g transform="translate(0 3.951)"><line x2="11.217" fill="#0a0f35" stroke="#030504" stroke-linecap="round" stroke-linejoin="round" stroke-width="2"/><line x2="11.217" transform="translate(68.871)" stroke-width="2" stroke="#030504" stroke-linecap="round" stroke-linejoin="round" fill="#0a0f35"/></g></g></g></g></svg>